<svg width="57" height="57" viewBox="0 0 57 57" fill="none" xmlns="http://www.w3.org/2000/svg">
<path d="M47.0113 25.8707L50.0598 24.6532L56.6154 41.0686L53.5668 42.286L47.0113 25.8707Z" fill="#FF9F40"/>
<path d="M1.0741 41.0275L7.62963 24.6121L10.6782 25.8296L4.12265 42.2449L1.0741 41.0275Z" fill="#FFBE40"/>
<path d="M50.1615 56.3994H7.50568V23.5873H50.1615V56.3994Z" fill="#FFDF40"/>
<path d="M28.8313 23.5878H50.1592V56.4H28.8313V23.5878Z" fill="#FFBE40"/>
<path d="M27.1927 46.5554H30.4739V49.8366H27.1927V46.5554Z" fill="#665252"/>
<path d="M53.5515 20.0871H56.8327V23.3683H53.5515V20.0871Z" fill="#D13465"/>
<path d="M7.50568 3.68121H10.7869V6.96243H7.50568V3.68121Z" fill="#FF525F"/>
<path d="M30.4739 43.2743H27.1927V42.5918C27.1927 39.9915 28.1653 37.7164 29.8619 36.3514C30.2496 36.0373 30.4739 35.5695 30.4739 35.0712C30.4739 34.1661 29.7385 33.4306 28.8333 33.4306C27.9281 33.4306 27.1927 34.1661 27.1927 35.0712H23.9115C23.9115 32.3572 26.1193 30.1494 28.8333 30.1494C31.5473 30.1494 33.7551 32.3572 33.7551 35.0712C33.7551 36.5677 33.0871 37.9647 31.9207 38.9052C31.001 39.6454 30.4739 40.9896 30.4739 42.5918V43.2743Z" fill="#665252"/>
<path d="M30.4742 35.0715C30.4742 35.5699 30.2498 36.0376 29.8621 36.3517C29.477 36.6615 29.1411 37.031 28.8336 37.4277V43.2746H30.4742V42.5921C30.4742 40.99 31.0012 39.6458 31.921 38.9055C33.0873 37.965 33.7554 36.568 33.7554 35.0715C33.7554 32.3575 31.5476 30.1497 28.8336 30.1497V33.4309C29.7387 33.4309 30.4742 34.1664 30.4742 35.0715Z" fill="#4D3636"/>
<path d="M18.9899 10.2437C16.2759 10.2437 14.0681 8.03585 14.0681 5.32185C14.0681 2.60785 16.2759 0.400024 18.9899 0.400024C21.7039 0.400024 23.9118 2.60785 23.9118 5.32185C23.9118 8.03585 21.7039 10.2437 18.9899 10.2437Z" fill="#E1E6F0"/>
<path d="M43.599 3.68124H40.3178V0.400024H37.0366V3.68124H33.7554V6.96246H37.0366V10.2437H40.3178V6.96246H43.599V3.68124Z" fill="#FFBE40"/>
<path d="M7.3963 10.2437H4.11508V13.5249H0.833862V16.8061H4.11508V20.0873H7.3963V16.8061H10.6775V13.5249H7.3963V10.2437Z" fill="#FFDF40"/>
<path d="M27.1896 6.96289H30.4708V16.8065H27.1896V6.96289Z" fill="#E1E6F0"/>
<path d="M15.107 14.3615L17.949 12.7206L21.2301 18.4034L18.388 20.0443L15.107 14.3615Z" fill="#E1E6F0"/>
<path d="M53.4411 10.2437H45.238C43.673 10.2437 42.2774 10.9786 41.3753 12.1207L41.3721 12.1182L36.5672 18.208L39.1435 20.2396L41.0769 17.7891C41.9497 19.1687 43.4881 20.0873 45.238 20.0873C47.952 20.0873 50.1599 17.8795 50.1599 15.1655C50.1599 14.5903 50.0598 14.0384 49.8777 13.5249H53.4411V10.2437Z" fill="#C3D0E6"/>
<path d="M28.8333 46.5557H30.4739V49.8369H28.8333V46.5557Z" fill="#4D3636"/>
<path d="M28.8333 6.9624H30.4739V16.8061H28.8333V6.9624Z" fill="#C3D0E6"/>
</svg>
