<svg width="57" height="45" viewBox="0 0 57 45" fill="none" xmlns="http://www.w3.org/2000/svg">
<path d="M4.12665 20.3456C1.94859 20.3456 0.424164 18.9842 0.424164 16.8062L0.494024 4.39467C0.494024 3.0547 0.833861 1.90178 1.85529 1.18909C2.49417 0.743337 3.2712 0.481812 4.10941 0.481812H52.2229C54.401 0.481812 56.1667 2.24748 56.1667 4.42554V16.8201C56.1667 17.7143 55.8691 18.539 55.3674 19.2007C54.6473 20.1504 53.543 20.4156 52.2591 20.4156C48.6417 20.4155 4.12665 20.3456 4.12665 20.3456Z" fill="#EE6161"/>
<path d="M55.4601 19.0742C54.7479 20.0962 53.5637 20.7644 52.2239 20.7644H4.11042C1.93235 20.7644 0.166687 18.9987 0.166687 16.8206V4.42606C0.166687 3.08631 0.834868 1.90207 1.85686 1.18994V16.8206C1.85686 18.0624 2.86758 19.0742 4.11042 19.0742H55.4601Z" fill="#E94444"/>
<path d="M42.5229 29.0979C42.5229 29.0979 40.7836 29.1113 40.4685 29.946V29.221C40.4685 27.9615 38.0467 27.5772 38.0467 27.5772C38.0467 27.5772 35.8682 27.9615 35.8682 29.221C35.8674 28.6109 35.8665 28.4767 35.8657 27.8665C35.8657 26.607 33.6896 26.3162 33.6896 26.3162C33.6896 26.3162 31.6115 26.2988 31.3461 27.2678V26.3162V19.9065C31.3461 18.647 29.046 17.9317 29.046 17.9317C29.046 17.9317 27.1475 18.7949 27.1475 20.0544L26.7458 28.3317L25.6952 28.7313C24.1312 28.7313 22.9766 29.5698 22.9766 31.1465L22.9393 34.2702C22.9393 36.7009 23.9862 38.884 25.9335 40.3172L26.3841 40.6488C27.3956 41.4137 28.2388 42.4127 28.345 43.6742C28.3596 43.8473 28.5008 43.9819 28.6744 43.9819L41.5599 43.926C41.7427 43.926 41.8907 43.7779 41.8907 43.5951C41.8907 43.1148 42.418 43.0313 42.5226 42.5682C42.7081 41.7477 43.0537 40.9674 43.5442 40.2749C44.3116 39.1913 44.7241 37.8933 44.7241 36.562V30.7324C44.724 29.5095 42.5229 29.0979 42.5229 29.0979Z" fill="#F1D0A5"/>
<path d="M29.8594 42.5679C29.6797 42.5679 29.5173 42.4585 29.4532 42.2906C29.0319 41.1876 28.2753 40.1865 27.2613 39.4203L26.7931 39.0746C25.298 37.9748 24.4068 36.204 24.4068 34.3356V31.1833C24.4068 30.5874 24.8804 30.0847 25.4761 30.0823H25.4876H26.7478L27.4715 29.3899L26.7478 28.332H25.4876C25.2632 28.332 25.0459 28.361 24.8365 28.4108C24.8377 28.4099 24.8387 28.4088 24.8399 28.4078C23.5813 28.6921 22.6405 29.8982 22.6564 31.1864V32.9368V34.3356C22.6564 36.767 23.8072 39.0513 25.7544 40.4851L26.2052 40.8162C27.2173 41.582 27.9656 42.7488 28.0721 44.0104C28.0868 44.1836 28.2279 44.3183 28.4018 44.3183H42.0341C42.2178 44.3183 42.3652 44.1695 42.3652 43.9871C42.3652 43.5058 42.4192 43.0303 42.5242 42.5679H29.8594Z" fill="#F2BB88"/>
<path d="M31.3478 19.9054V20.9263C31.3478 20.329 31.1159 19.7852 30.7365 19.3787C30.1332 18.7323 29.0475 19.1675 29.0475 20.0517V34.2114C29.0475 34.8462 28.5329 35.3609 27.8981 35.3609C27.2633 35.3609 26.7487 34.8462 26.7487 34.2114V19.9054C26.7487 18.6465 27.7785 17.6255 29.0474 17.6255C30.318 17.6255 31.3478 18.6466 31.3478 19.9054Z" fill="#F2BB88"/>
<path d="M35.8681 28.8878C35.8681 28.3656 35.6912 27.8844 35.3936 27.4998C34.829 26.7703 33.654 27.1916 33.654 28.1141V31.2925C33.654 31.8115 33.2332 32.2323 32.7142 32.2323H32.2828C31.7633 32.2323 31.3425 31.8108 31.343 31.2915L31.3478 27.2672C31.6132 26.2988 32.5059 25.5854 33.5678 25.5854C33.5969 25.5854 33.6261 25.5854 33.6538 25.5869C34.885 25.632 35.868 26.6355 35.868 27.8667C35.8695 28.4764 35.8696 29.4975 35.8681 28.8878Z" fill="#F2BB88"/>
<path d="M40.4723 29.2204V30.2413C40.4723 29.644 40.2404 29.1003 39.861 28.6937C39.2577 28.0473 38.1721 28.4826 38.1721 29.3667V31.3116C38.1721 31.8306 37.7513 32.2513 37.2324 32.2513H36.8174C36.2984 32.2513 35.8776 31.8306 35.8776 31.3116V29.0627C35.9379 27.8912 37.0029 26.918 38.172 26.9404C39.4424 26.9406 40.4723 27.9615 40.4723 29.2204Z" fill="#F2BB88"/>
<path d="M44.7262 30.7315V31.7525C44.7262 30.9797 44.1309 30.2989 43.4047 29.9032C42.9216 29.6399 42.3327 29.9976 42.3327 30.5477V31.3207C42.3327 31.8346 41.916 32.2513 41.4021 32.2513C40.8881 32.2513 40.4715 31.8346 40.4715 31.3207V29.9452C40.8059 29.0357 41.7629 28.4086 42.7702 28.5318C43.8699 28.6529 44.7262 29.5923 44.7262 30.7315Z" fill="#F2BB88"/>
<path d="M42.6262 13.5313V7.74588C42.6262 7.28311 42.2697 6.87961 41.8071 6.86575C41.3286 6.85133 40.936 7.23511 40.936 7.7105V13.496C40.936 13.9587 41.2925 14.3622 41.7551 14.3761C42.2336 14.3904 42.6262 14.0067 42.6262 13.5313Z" fill="#F9F8F9"/>
<path d="M53.2942 8.58226C53.7696 8.58226 54.1532 8.1898 54.1389 7.71115C54.1251 7.2486 53.7216 6.89209 53.2588 6.89209H50.8639C50.3972 6.89209 50.0189 7.27046 50.0189 7.73718V13.5049C50.0189 13.9717 50.3972 14.35 50.8639 14.35H53.2588C53.7216 14.35 54.1251 13.9935 54.1389 13.531C54.1534 13.0524 53.7696 12.6599 53.2942 12.6599H51.709V11.4661H53.0796C53.5424 11.4661 53.9459 11.1096 53.9598 10.6471C53.9742 10.1685 53.5904 9.77597 53.115 9.77597H51.709V8.58226H53.2942Z" fill="#F9F8F9"/>
<path d="M17.9251 6.86536H16.2872C15.8205 6.86536 15.4421 7.24373 15.4421 7.71044V10.3908V10.3952V13.5113C15.4421 13.6292 15.4601 13.7478 15.5063 13.8562C15.6449 14.1822 15.9561 14.3765 16.2872 14.3765H16.2909C16.2909 14.3765 17.8449 14.3695 18.2732 14.3695C19.6032 14.3695 20.6851 13.2876 20.6851 11.9576C20.6851 11.2369 20.3657 10.5908 19.863 10.1485C20.0851 9.76896 20.1984 9.31858 20.1522 8.83824C20.0435 7.70909 19.0594 6.86536 17.9251 6.86536ZM17.956 8.55553C18.2141 8.55553 18.4448 8.7437 18.47 9.00049C18.4987 9.29515 18.2669 9.54416 17.9781 9.54416C17.8891 9.54383 17.5638 9.54574 17.1324 9.54574V8.55553H17.956ZM18.2732 12.6793C18.0607 12.6793 17.572 12.681 17.1322 12.6827V11.2367C17.1414 11.2357 18.1977 11.2358 18.2732 11.2358C18.6712 11.2358 18.9949 11.5596 18.9949 11.9575C18.9949 12.3554 18.6712 12.6793 18.2732 12.6793Z" fill="#F9F8F9"/>
<path d="M46.297 6.86536H44.6591C44.1924 6.86536 43.814 7.24373 43.814 7.71044V13.5112C43.814 13.6291 43.832 13.7477 43.8782 13.8561C44.0168 14.1821 44.328 14.3764 44.6591 14.3764H44.6628C44.6628 14.3764 46.2169 14.3694 46.6451 14.3694C47.9751 14.3694 49.057 13.2874 49.057 11.9575C49.057 11.2368 48.7376 10.5907 48.2348 10.1483C48.4569 9.76884 48.5702 9.31836 48.524 8.83812C48.4154 7.70909 47.4313 6.86536 46.297 6.86536ZM46.328 8.55553C46.586 8.55553 46.8168 8.7437 46.8419 9.00049C46.8706 9.29515 46.6388 9.54416 46.35 9.54416C46.261 9.54383 45.9357 9.54574 45.5043 9.54574V8.55553H46.328ZM46.6451 12.6793C46.4326 12.6793 45.9439 12.681 45.5042 12.6827V11.2367C45.5133 11.2357 46.5697 11.2358 46.6451 11.2358C47.0431 11.2358 47.3668 11.5596 47.3668 11.9575C47.3668 12.3554 47.0431 12.6793 46.6451 12.6793Z" fill="#F9F8F9"/>
<path d="M31.1194 8.58896C31.6565 8.49352 32.1904 8.60473 32.6303 8.89477C33.0061 9.14254 33.5232 9.0782 33.7953 8.71955C34.0911 8.3298 33.9959 7.77745 33.596 7.50725C32.8916 7.0313 32.0526 6.80966 31.1933 6.87726C29.272 7.02837 27.7612 8.65239 27.7404 10.5795C27.7177 12.6693 29.411 14.3764 31.4957 14.3764C32.3918 14.3578 33.3337 14.0294 33.9766 13.2529C34.2766 12.8954 34.2299 12.3623 33.8724 12.0624C33.5148 11.7623 32.9818 11.809 32.6819 12.1666C32.4426 12.4412 32.1037 12.6544 31.4957 12.6863C30.2507 12.6863 29.2594 11.5789 29.4551 10.2974C29.5863 9.43832 30.2638 8.74096 31.1194 8.58896Z" fill="#F9F8F9"/>
<path d="M5.07415 12.6859C4.54141 12.6859 4.02951 12.4776 3.69644 12.127C3.385 11.7993 2.87434 11.7243 2.52053 12.006C2.13495 12.313 2.09382 12.8762 2.41946 13.2357C3.07626 13.9605 4.04382 14.3762 5.07415 14.3762C6.35789 14.3762 7.43667 13.5526 7.63927 12.4181C7.79251 11.5597 7.40873 10.4405 5.87214 9.8737C5.24925 9.64395 4.66367 9.39617 4.39087 9.27819C4.27527 9.22816 4.20293 9.10816 4.22005 8.98331C4.22017 8.98264 4.22028 8.98207 4.22028 8.9814C4.23188 8.90095 4.29205 8.70387 4.60079 8.6108C5.35833 8.38251 6.07237 8.94207 6.09468 8.95988C6.45198 9.25543 6.98134 9.20788 7.28016 8.85238C7.58045 8.49508 7.53425 7.962 7.17706 7.66171C7.12016 7.61394 5.76374 6.49516 4.11335 6.99252C3.26556 7.24796 2.66543 7.91794 2.54723 8.74128C2.43591 9.51651 2.77214 10.2624 3.42455 10.6878C3.55548 10.7702 4.30682 11.0878 5.28711 11.4594C5.46458 11.5249 6.03868 11.766 5.97524 12.1211C5.92679 12.3926 5.56847 12.6859 5.07415 12.6859Z" fill="#F9F8F9"/>
<path d="M24.4089 12.686C23.8762 12.686 23.3642 12.4777 23.0311 12.1271C22.7197 11.7994 22.209 11.7244 21.8552 12.0061C21.4696 12.3131 21.4285 12.8763 21.7541 13.2358C22.4109 13.9606 23.3786 14.3763 24.4088 14.3763C25.6926 14.3763 26.7712 13.5527 26.9738 12.4182C27.1271 11.5598 26.7434 10.4406 25.2067 9.87381C24.5838 9.64406 23.9983 9.39628 23.7254 9.2783C23.6098 9.22828 23.5374 9.10827 23.5546 8.98343C23.5547 8.98275 23.5548 8.98219 23.5548 8.98151C23.5664 8.90117 23.6266 8.70399 23.9353 8.61091C24.692 8.38263 25.4057 8.94117 25.4292 8.95988C25.7864 9.25554 26.3159 9.20811 26.6147 8.85238C26.915 8.49519 26.8688 7.962 26.5115 7.66171C26.4546 7.61394 25.0982 6.49516 23.4478 6.99252C22.6 7.24796 21.9998 7.91794 21.8817 8.74128C21.7703 9.51651 22.1066 10.2624 22.7591 10.6878C22.8899 10.7703 23.6414 11.0878 24.6215 11.4594C24.799 11.5249 25.373 11.766 25.3097 12.1209C25.2616 12.3927 24.9032 12.686 24.4089 12.686Z" fill="#F9F8F9"/>
<path d="M12.046 12.5567C11.8722 12.6442 11.6848 12.6875 11.4658 12.6864C11.2319 12.686 11.0293 12.6291 10.8466 12.5124C10.4111 12.2342 10.3235 12.0014 10.3235 11.716V7.74599C10.3235 7.28322 9.96702 6.87972 9.50448 6.86586C9.02593 6.85144 8.63336 7.23522 8.63336 7.71061V11.716C8.63336 12.6371 9.07191 13.3843 9.9366 13.9366C10.2593 14.1416 10.8334 14.3673 11.4677 14.3764C11.947 14.3764 12.3973 14.272 12.8062 14.0661C13.8134 13.5588 14.3682 12.7226 14.3682 11.7116V7.74588C14.3682 7.28311 14.0117 6.87961 13.5492 6.86575C13.0706 6.85133 12.6781 7.23511 12.6781 7.7105V11.7117C12.6782 11.9722 12.603 12.2762 12.046 12.5567Z" fill="#F9F8F9"/>
<path d="M39.9739 9.22313C39.9739 7.92305 38.8778 6.86534 37.5304 6.86534H35.9836C35.9833 6.86534 35.983 6.86534 35.9827 6.86534H35.9818C35.517 6.84122 35.1367 7.20236 35.1367 7.66772V13.4959C35.1367 13.9586 35.4933 14.3621 35.9558 14.376C36.4343 14.3904 36.8269 14.0066 36.8269 13.5313V12.1949L38.4946 14.0897C38.6615 14.2796 38.8948 14.3765 39.1293 14.3765C39.3312 14.3765 39.534 14.3045 39.696 14.1579C40.0429 13.8441 40.0502 13.299 39.7411 12.9479L38.4014 11.4258C39.3198 11.0863 39.9739 10.2273 39.9739 9.22313ZM37.5304 8.55551C37.9387 8.55551 38.2837 8.8612 38.2837 9.22313C38.2837 9.58505 37.9387 9.89086 37.5304 9.89086C37.365 9.89086 37.0993 9.89187 36.8347 9.89311C36.8331 9.61288 36.8327 9.17986 36.8312 8.55551H37.5304Z" fill="#F9F8F9"/>
</svg>
