<svg width="57" height="57" viewBox="0 0 57 57" fill="none" xmlns="http://www.w3.org/2000/svg">
<path d="M19.8388 3.7182L16.6136 11.5837L6.67048 1.64054C10.9276 -0.538175 16.275 0.154377 19.8388 3.7182Z" fill="#4BB3A4"/>
<path d="M11.827 11.7276L23.7146 28.2556L30.9635 21.0067L23.0697 13.1128C23.4803 9.77098 22.4023 6.28295 19.8369 3.71771L11.827 11.7276Z" fill="#60D9CE"/>
<path d="M11.8272 11.7277L26.0351 25.9356L21.1056 30.8651L13.2117 22.9712C9.87064 23.3812 6.38263 22.3031 3.81739 19.7377C0.253466 16.1738 -0.438647 10.8274 1.73996 6.56995L9.36239 14.1924L11.8272 11.7277Z" fill="#4BB3A4"/>
<path d="M37.1628 53.0818L40.388 45.2164L50.3311 55.1595C46.0739 57.3382 40.7267 56.6457 37.1628 53.0818Z" fill="#60D9CE"/>
<path d="M45.1708 45.0724L33.283 28.5443L26.0341 35.7932L33.928 43.6872C33.5173 47.0289 34.5954 50.517 37.1607 53.0822L45.1708 45.0724Z" fill="#4BB3A4"/>
<path d="M45.1729 45.0728L30.965 30.8649L35.8946 25.9353L43.7885 33.8292C47.1295 33.4193 50.6175 34.4974 53.1827 37.0627C56.7465 40.6264 57.4387 45.9729 55.2601 50.2304L47.6376 42.608L45.1729 45.0728Z" fill="#60D9CE"/>
<path d="M53.7401 3.15887L54.9724 4.39118C57.0056 6.42443 57.0056 9.75168 54.9724 11.7849L51.9804 14.7769L43.9577 9.84782L53.7401 3.15887Z" fill="#FF6126"/>
<path d="M52.5091 1.9262L53.7414 3.15851L45.5057 11.3942L42.1234 4.91822L45.1154 1.9262C47.1486 -0.107156 50.4759 -0.107156 52.5091 1.9262Z" fill="#FF8151"/>
<path d="M47.0517 9.84778L51.9809 14.777L47.0517 19.7061L39.029 14.777L47.0517 9.84778Z" fill="#A3FDF6"/>
<path d="M42.1239 4.91858L47.0531 9.84782L40.5771 16.3237L37.1947 9.84782L42.1239 4.91858Z" fill="#DBFFFA"/>
<path d="M5.02324 50.3295L6.10592 54.5058L1.15624 55.7433L5.02324 50.3295Z" fill="#000E0F"/>
<path d="M2.39369 50.7938L4.24986 52.6499L1.15624 55.7435L2.39369 50.7938Z" fill="#116371"/>
<path d="M10.146 45.2072L14.3014 52.4563L6.10666 54.5057L4.2506 52.6495L10.146 45.2072Z" fill="#FFA07D"/>
<path d="M4.44219 42.5982L9.37175 47.5278L4.24969 52.6498L2.39352 50.7938L4.44219 42.5982Z" fill="#FFC0A8"/>
<path d="M42.1239 14.7764L47.0531 19.7056L14.3021 52.4567L9.37291 47.5274L23.4282 28.8318L42.1239 14.7764Z" fill="#FFD15E"/>
<path d="M42.1215 14.7762L37.1925 9.84717L4.4418 42.5979L9.37084 47.5269L42.1215 14.7762Z" fill="#FFEA7C"/>
</svg>
